<svg width="44" height="74" viewBox="0 0 44 74" fill="none" xmlns="http://www.w3.org/2000/svg">
<path d="M3.80168 13.2039C2.89809 13.2039 2.19434 12.9681 1.69166 12.4977C1.18897 12.0272 0.937012 11.4116 0.937012 10.6532C0.937012 9.81916 1.22621 9.16878 1.8046 8.69961C2.383 8.23168 3.31762 7.95489 4.60969 7.86801L6.46652 7.7141L6.74082 9.13402L4.86786 9.28793C4.37263 9.32517 4.01641 9.43811 3.79796 9.62678C3.57951 9.81544 3.47152 10.0736 3.47152 10.4013C3.47152 10.724 3.57082 10.9735 3.77065 11.1472C3.96924 11.3222 4.25968 11.4091 4.64197 11.4091C4.87903 11.4091 5.12106 11.3669 5.36806 11.2838C5.61506 11.2006 5.84096 11.0566 6.04575 10.8518V7.62722C6.04575 7.22383 5.97997 6.90609 5.8484 6.67522C5.71684 6.44436 5.50459 6.27804 5.21043 6.17875C4.91751 6.07945 4.52529 6.02981 4.03626 6.02981C3.69742 6.02981 3.31265 6.05835 2.88196 6.11421C2.45126 6.1713 2.04043 6.26067 1.64697 6.38479V4.44729C2.07767 4.32317 2.54932 4.23132 3.06317 4.16926C3.57702 4.1072 4.05488 4.07617 4.4955 4.07617C5.43136 4.07617 6.19966 4.1916 6.79915 4.42371C7.39865 4.65457 7.84175 5.04058 8.12723 5.58174C8.4127 6.1229 8.55544 6.85768 8.55544 7.78857V13.0425H6.44045L6.26296 12.1625H6.14132C5.87819 12.5225 5.54183 12.7868 5.13224 12.9532C4.72388 13.1195 4.27954 13.2039 3.80168 13.2039Z" fill="#3FB4DB"/>
<path d="M9.91846 13.0424V0H12.4852V5.10005H12.6143C12.9159 4.76617 13.2709 4.51173 13.6793 4.33796C14.0876 4.16295 14.5456 4.07607 15.0508 4.07607C15.5882 4.07607 16.076 4.18902 16.5117 4.41491C16.9473 4.64081 17.2936 5.0082 17.5481 5.51709C17.8037 6.02598 17.9316 6.69995 17.9316 7.53899V13.0437H15.3574V7.70779C15.3574 7.17036 15.2456 6.80048 15.0222 6.59817C14.7988 6.39585 14.496 6.29532 14.1137 6.29532C13.9201 6.29532 13.7239 6.32138 13.5241 6.37227C13.3255 6.42316 13.1356 6.5026 12.9557 6.61058C12.7757 6.71856 12.618 6.85261 12.484 7.01397V13.0424H9.91846V13.0424Z" fill="#3FB4DB"/>
<path d="M23.1941 13.2113C22.3116 13.2113 21.5495 13.0425 20.9065 12.7074C20.2636 12.371 19.7671 11.8659 19.4171 11.1907C19.0671 10.5154 18.8921 9.66896 18.8921 8.65242C18.8921 7.62472 19.0634 6.77202 19.4047 6.09433C19.746 5.41664 20.2388 4.91023 20.8817 4.57759C21.5247 4.24371 22.2954 4.07739 23.1941 4.07739C24.0927 4.07739 24.8635 4.24619 25.5064 4.58132C26.1493 4.91768 26.6421 5.42284 26.9834 6.09805C27.3247 6.77326 27.496 7.61975 27.496 8.63629C27.496 9.65903 27.321 10.508 26.971 11.1869C26.621 11.8646 26.1245 12.3723 25.4816 12.7086C24.8399 13.0438 24.0765 13.2113 23.1941 13.2113ZM23.1941 11.2589C23.554 11.2589 23.8631 11.1807 24.1187 11.0243C24.3744 10.8679 24.5693 10.6011 24.7033 10.2213C24.8374 9.84148 24.9057 9.32142 24.9057 8.65987C24.9057 7.98218 24.8386 7.45219 24.7033 7.0699C24.5693 6.68762 24.3732 6.41704 24.1187 6.25816C23.8631 6.09929 23.5552 6.01986 23.1941 6.01986C22.8341 6.01986 22.5251 6.09805 22.2706 6.25444C22.0149 6.41083 21.8201 6.67769 21.686 7.05749C21.552 7.4373 21.4837 7.95984 21.4837 8.6276C21.4837 9.30529 21.5507 9.83528 21.686 10.2176C21.8201 10.5998 22.0149 10.8692 22.2706 11.0243C22.5263 11.1807 22.8341 11.2589 23.1941 11.2589Z" fill="#3FB4DB"/>
<path d="M28.5288 13.0425V4.2127H30.6351L30.8287 5.35087H30.9578C31.2048 4.91522 31.5337 4.59623 31.9421 4.39392C32.3504 4.1916 32.7997 4.09106 33.29 4.09106C33.4241 4.09106 33.5531 4.09603 33.6773 4.1072C33.8014 4.11837 33.9119 4.13451 34.0087 4.15561V6.48036C33.8746 6.45305 33.7306 6.43567 33.5767 6.42823C33.4241 6.42078 33.2764 6.41581 33.1373 6.41581C32.8841 6.41581 32.6285 6.44684 32.3703 6.5089C32.1121 6.57096 31.8726 6.66529 31.6516 6.7919C31.4307 6.9185 31.2458 7.07365 31.0943 7.2561V13.0425H28.5288V13.0425Z" fill="#3FB4DB"/>
<path d="M37.35 13.2039C36.4464 13.2039 35.7427 12.9681 35.24 12.4977C34.7373 12.0272 34.4854 11.4116 34.4854 10.6532C34.4854 9.81916 34.7745 9.16878 35.3529 8.69961C35.9313 8.23168 36.866 7.95489 38.158 7.86801L40.0149 7.7141L40.2892 9.13402L38.4162 9.28793C37.921 9.32517 37.5647 9.43811 37.3463 9.62678C37.1278 9.81544 37.0199 10.0736 37.0199 10.4013C37.0199 10.724 37.1192 10.9735 37.319 11.1472C37.5176 11.3222 37.808 11.4091 38.1903 11.4091C38.4274 11.4091 38.6694 11.3669 38.9164 11.2838C39.1634 11.2006 39.3893 11.0566 39.5941 10.8518V7.62722C39.5941 7.22383 39.5283 6.90609 39.3967 6.67522C39.2652 6.44436 39.0529 6.27804 38.7588 6.17875C38.4658 6.07945 38.0736 6.02981 37.5846 6.02981C37.2458 6.02981 36.861 6.05835 36.4303 6.11421C35.9996 6.1713 35.5888 6.26067 35.1953 6.38479V4.44729C35.626 4.32317 36.0977 4.23132 36.6115 4.16926C37.1254 4.1072 37.6032 4.07617 38.0438 4.07617C38.9797 4.07617 39.748 4.1916 40.3475 4.42371C40.947 4.65457 41.3901 5.04058 41.6756 5.58174C41.961 6.1229 42.1038 6.85768 42.1038 7.78857V13.0425H39.9888L39.8113 12.1625H39.6897C39.4265 12.5225 39.0902 12.7868 38.6806 12.9532C38.2722 13.1195 37.8291 13.2039 37.35 13.2039Z" fill="#3FB4DB"/>
<path d="M7.36398 46.0133C6.02722 46.0133 4.74135 45.9339 3.50885 45.7762C2.2751 45.6186 1.10466 45.4051 0 45.1383V39.3593C1.03267 39.6025 2.17829 39.8086 3.43686 39.9786C4.69418 40.1487 5.88821 40.2343 7.01893 40.2343C8.7206 40.2343 9.92332 40.001 10.6283 39.533C11.3333 39.0651 11.6858 38.3874 11.6858 37.5C11.6858 36.6125 11.342 35.9448 10.6556 35.4942C9.96924 35.0449 8.73178 34.8202 6.9457 34.8202H2.51465V28.9494H6.45295C8.06898 28.9494 9.1786 28.731 9.78058 28.2928C10.3826 27.8559 10.6829 27.2713 10.6829 26.5427C10.6829 25.7285 10.3701 25.1154 9.74335 24.702C9.11779 24.2887 8.05657 24.0827 6.56217 24.0827C5.55309 24.0827 4.49311 24.1708 3.381 24.3471C2.2689 24.5233 1.26353 24.7691 0.363669 25.0856V19.3066C0.95944 19.1117 1.65823 18.9392 2.46004 18.7865C3.26185 18.6351 4.10089 18.516 4.97593 18.4316C5.85097 18.3472 6.68381 18.3037 7.47321 18.3037C11.0826 18.3037 13.7747 18.9541 15.5496 20.2549C17.3245 21.5556 18.2107 23.4025 18.2107 25.7968C18.2107 27.3532 17.785 28.6677 16.9348 29.7438C16.0833 30.8199 14.9117 31.5274 13.416 31.8674V31.649C15.2145 31.9407 16.6096 32.6184 17.6001 33.6821C18.5906 34.7458 19.0858 36.1893 19.0858 38.0113C19.0858 39.6646 18.6601 41.0895 17.8098 42.286C16.9596 43.4837 15.6675 44.4035 13.9361 45.0476C12.2046 45.6906 10.0127 46.0133 7.36398 46.0133Z" fill="#3FB4DB"/>
<path d="M32.0476 46.0133C29.6893 46.0133 27.6687 45.5119 25.9856 44.509C24.3026 43.5061 23.0105 41.9807 22.1119 39.9327C21.212 37.8848 20.7627 35.2931 20.7627 32.1579C20.7627 29.0227 21.212 26.431 22.1119 24.3831C23.0117 22.3351 24.3026 20.8097 25.9856 19.8068C27.6687 18.8039 29.6893 18.3025 32.0476 18.3025C34.4059 18.3025 36.429 18.8039 38.1183 19.8068C39.8075 20.8097 41.1021 22.3351 42.0019 24.3831C42.9018 26.431 43.3511 29.0227 43.3511 32.1579C43.3511 35.2931 42.9018 37.886 42.0019 39.9327C41.1021 41.9807 39.8075 43.5061 38.1183 44.509C36.429 45.5119 34.4059 46.0133 32.0476 46.0133ZM32.0662 39.6137C32.8444 39.6137 33.4973 39.3853 34.0261 38.9298C34.5548 38.4743 34.9532 37.706 35.2201 36.6237C35.4869 35.5426 35.621 34.0532 35.621 32.1567C35.621 30.2601 35.4869 28.7694 35.2201 27.6809C34.952 26.5936 34.5548 25.8241 34.0261 25.3748C33.4973 24.9255 32.8444 24.7008 32.0662 24.7008C31.288 24.7008 30.6314 24.9255 30.0977 25.3748C29.5627 25.8241 29.1618 26.5936 28.895 27.6809C28.6281 28.7682 28.4941 30.2601 28.4941 32.1567C28.4941 34.0532 28.6244 35.5414 28.8863 36.6237C29.1469 37.706 29.5454 38.4743 30.0803 38.9298C30.614 39.3866 31.2756 39.6137 32.0662 39.6137Z" fill="#3FB4DB"/>
<path d="M19.5685 72.0935L4.80456 56.8616C3.09668 55.0991 4.44213 52.2891 6.99526 52.2891H36.5244C39.0775 52.2891 40.4242 55.0991 38.7151 56.8616L23.9512 72.0935C22.7795 73.3024 20.7402 73.3024 19.5685 72.0935Z" fill="#3FB4DB"/>
</svg>
