<svg width="41" height="74" viewBox="0 0 41 74" fill="none" xmlns="http://www.w3.org/2000/svg">
<path fill-rule="evenodd" clip-rule="evenodd" d="M34.0002 52.2421C36.5926 52.2421 37.9597 55.1256 36.2251 56.9349L21.2338 72.5698C20.0447 73.8101 17.9733 73.8101 16.7841 72.5698L1.79278 56.9349C0.0582665 55.1256 1.42538 52.2421 4.01765 52.2421H34.0002ZM24.3043 17.646C28.1546 17.646 31.0266 18.329 32.9211 19.6949C34.8152 21.0609 35.7625 23.1912 35.7625 26.085C35.7625 27.5071 35.4756 28.9137 34.9016 30.3045C34.3278 31.6957 33.362 33.1707 32.0047 34.7299L28.2286 39.0524H36.9657V45.7137H17.5849V41.3727L24.9707 32.522C26.0073 31.2621 26.7446 30.1987 27.1827 29.3316C27.6207 28.4647 27.8399 27.6568 27.8399 26.9083C27.8399 25.9727 27.4975 25.2743 26.8126 24.8126C26.1277 24.3513 24.9893 24.1202 23.3973 24.1202C22.3358 24.1202 21.2529 24.2171 20.1487 24.4103C19.0441 24.6039 18.0724 24.8626 17.2332 25.1868V18.6751C18.0969 18.3884 19.2075 18.1451 20.5652 17.9454C21.9225 17.746 23.1688 17.646 24.3043 17.646ZM13.9016 17.908V45.7137H5.84934V27.3574L0 31.3618V23.8583L8.70002 17.908H13.9016ZM20.2419 4.13446C21.4523 4.13446 22.3885 4.47747 23.0506 5.1635C23.7128 5.84977 24.0438 6.86208 24.0438 8.20068C24.0438 9.09787 23.8908 9.85119 23.5846 10.4605C23.2785 11.0698 22.8417 11.5256 22.2746 11.8279C21.7074 12.1301 21.0298 12.2813 20.2419 12.2813C19.4541 12.2813 18.7765 12.1301 18.2094 11.8279C17.6422 11.5256 17.2055 11.0711 16.8993 10.464C16.5932 9.85713 16.4401 9.10741 16.4401 8.21506C16.4401 6.86208 16.7701 5.8437 17.4299 5.16003C18.0894 4.47636 19.0268 4.13446 20.2419 4.13446ZM3.71784 4.13443C4.56726 4.13443 5.25315 4.24001 5.77538 4.45105C6.29736 4.66234 6.68413 5.00882 6.93581 5.491C7.18724 5.97317 7.31314 6.62698 7.31314 7.45217V12.1301H5.4336L5.27693 11.3528H5.17016C4.94239 11.6649 4.65038 11.8962 4.2945 12.0473C3.9385 12.1985 3.54217 12.2741 3.10551 12.2741C2.58341 12.2741 2.13252 12.1793 1.75274 11.9898C1.37308 11.8003 1.08242 11.534 0.880643 11.1909C0.678861 10.848 0.578093 10.4486 0.578093 9.99268C0.578093 9.23949 0.837982 8.65656 1.35776 8.24391C1.87741 7.83125 2.69729 7.58886 3.81739 7.51698L5.08471 7.40905V7.30818C5.08471 6.9436 5.02648 6.65821 4.91027 6.45188C4.79393 6.24555 4.60882 6.09809 4.35494 6.00924C4.10106 5.92051 3.75339 5.87602 3.31195 5.87602C2.99383 5.87602 2.64629 5.90254 2.26896 5.95521C1.89163 6.00812 1.53441 6.08731 1.19741 6.19276V4.46543C1.56775 4.35997 1.97818 4.27843 2.42919 4.22081C2.88007 4.16318 3.30962 4.13443 3.71784 4.13443ZM33.3418 4.13443C34.1912 4.13443 34.8771 4.24001 35.3993 4.45105C35.9213 4.66234 36.3081 5.00882 36.5597 5.491C36.8112 5.97317 36.9371 6.62698 36.9371 7.45217V12.1301H35.0575L34.9009 11.3528H34.7941C34.5663 11.6649 34.2743 11.8962 33.9184 12.0473C33.5624 12.1985 33.1661 12.2741 32.7294 12.2741C32.2073 12.2741 31.7564 12.1793 31.3767 11.9898C30.997 11.8003 30.7064 11.534 30.5046 11.1909C30.3028 10.848 30.202 10.4486 30.202 9.99268C30.202 9.23949 30.4619 8.65656 30.9817 8.24391C31.5013 7.83125 32.3212 7.58886 33.4413 7.51698L34.7086 7.40905V7.30818C34.7086 6.9436 34.6504 6.65821 34.5342 6.45188C34.4179 6.24555 34.2327 6.09809 33.9789 6.00924C33.725 5.92051 33.3773 5.87602 32.9359 5.87602C32.6178 5.87602 32.2702 5.90254 31.8929 5.95521C31.5156 6.00812 31.1583 6.08731 30.8213 6.19276V4.46543C31.1917 4.35997 31.6021 4.27843 32.0531 4.22081C32.504 4.16318 32.9335 4.13443 33.3418 4.13443ZM10.7945 0.5V5.0484H10.9012C11.167 4.75099 11.4803 4.52434 11.841 4.36832C12.2017 4.21243 12.6029 4.13448 13.0443 4.13448C13.8131 4.13448 14.4301 4.38394 14.8953 4.88297C15.3604 5.382 15.5931 6.16394 15.5931 7.22904V12.1301H13.3149V7.38022C13.3149 6.91961 13.2222 6.59332 13.0371 6.40149C12.852 6.20967 12.5791 6.1135 12.2183 6.1135C11.9524 6.1135 11.6903 6.16877 11.4317 6.27906C11.1729 6.38947 10.9606 6.5502 10.7945 6.76124V12.1301H8.51626V0.5H10.7945ZM29.1627 4.14884C29.3906 4.14884 29.5993 4.16805 29.7892 4.20634V6.28624C29.5802 6.24311 29.324 6.22155 29.0202 6.22155C28.6738 6.22155 28.3343 6.28871 28.0021 6.42305C27.6699 6.55738 27.4137 6.74214 27.2332 6.97722V12.1301H24.955V4.25678H26.8133L26.9911 5.27145H27.0979C27.3116 4.89262 27.5964 4.61057 27.9524 4.42593C28.3083 4.24129 28.7118 4.14884 29.1627 4.14884ZM5.08471 8.7044L4.04528 8.78358C3.61806 8.81729 3.30717 8.91667 3.11262 9.08223C2.91795 9.24779 2.82074 9.47927 2.82074 9.77681C2.82074 10.0695 2.90851 10.2926 3.08418 10.4461C3.25961 10.5996 3.51594 10.6764 3.85306 10.6764C4.07617 10.6764 4.2945 10.6368 4.50805 10.5576C4.7216 10.4784 4.91395 10.3525 5.08471 10.1798V8.7044ZM34.7086 8.7044L33.6692 8.78358C33.242 8.81729 32.9311 8.91667 32.7365 9.08223C32.5419 9.24779 32.4447 9.47927 32.4447 9.77681C32.4447 10.0695 32.5324 10.2926 32.7081 10.4461C32.8835 10.5996 33.1399 10.6764 33.477 10.6764C33.7001 10.6764 33.9184 10.6368 34.132 10.5576C34.3455 10.4784 34.5379 10.3525 34.7086 10.1798V8.7044ZM20.2419 5.87605C19.9097 5.87605 19.6333 5.94804 19.4125 6.09204C19.192 6.23591 19.0234 6.47706 18.9071 6.81524C18.7907 7.15355 18.7327 7.61305 18.7327 8.19349C18.7327 8.7789 18.7907 9.2431 18.9071 9.58599C19.0234 9.92913 19.1906 10.1725 19.4089 10.3165C19.6272 10.4605 19.9049 10.5324 20.2419 10.5324C20.5789 10.5324 20.8566 10.4605 21.0749 10.3165C21.2931 10.1725 21.4606 9.93149 21.5769 9.59331C21.6932 9.255 21.7514 8.79798 21.7514 8.22224C21.7514 7.63696 21.6932 7.17152 21.5769 6.82602C21.4606 6.48053 21.292 6.23591 21.0715 6.09204C20.8507 5.94804 20.5742 5.87605 20.2419 5.87605Z" fill="#3FB4DB"/>
</svg>
