<svg width="41" height="74" viewBox="0 0 41 74" fill="none" xmlns="http://www.w3.org/2000/svg">
<path d="M7.51058 4.91949C8.03436 5.12925 8.42161 5.47305 8.67481 5.95091C8.92677 6.42876 9.05337 7.0779 9.05337 7.89708V12.5378H7.16678L7.00915 11.7671H6.90241C6.67403 12.0761 6.38111 12.3057 6.02365 12.4559C5.66619 12.6061 5.26901 12.6806 4.83088 12.6806C4.3071 12.6806 3.85531 12.5863 3.47427 12.3988C3.09322 12.2114 2.80155 11.947 2.59923 11.6057C2.39692 11.2656 2.29639 10.8697 2.29639 10.4167C2.29639 9.66948 2.55703 9.09109 3.07833 8.6815C3.59963 8.27191 4.42129 8.03237 5.5458 7.96038L6.81676 7.85364V7.7531C6.81676 7.39192 6.75843 7.10769 6.64176 6.90413C6.52509 6.69934 6.33891 6.55288 6.08447 6.46476C5.83003 6.37663 5.48125 6.33195 5.03815 6.33195C4.71917 6.33195 4.3704 6.35801 3.99184 6.41014C3.61328 6.46227 3.25582 6.54047 2.91698 6.64597V4.93438C3.28809 4.83012 3.70016 4.74945 4.15195 4.69111C4.60374 4.63402 5.03443 4.60547 5.44402 4.60547C6.29795 4.60547 6.98681 4.71097 7.51058 4.91949ZM6.23962 10.9789C6.45434 10.9007 6.64672 10.7754 6.81801 10.6041V9.1395L5.77541 9.21769C5.34721 9.2512 5.03567 9.34926 4.83956 9.51434C4.6447 9.67817 4.54665 9.90779 4.54665 10.2032C4.54665 10.4936 4.63477 10.7146 4.81102 10.8672C4.98726 11.0199 5.24419 11.0956 5.58179 11.0956C5.80644 11.0968 6.02489 11.0571 6.23962 10.9789Z" fill="#3FB4DB"/>
<path d="M10.2583 1H12.5433V5.51293H12.6501C12.9169 5.21753 13.2309 4.99288 13.5933 4.83773C13.9545 4.68258 14.3567 4.60563 14.7998 4.60563C15.5705 4.60563 16.1899 4.85262 16.6566 5.34785C17.1233 5.84308 17.3566 6.61882 17.3566 7.67631V12.5393H15.0716V7.82649C15.0716 7.36974 14.9785 7.04579 14.7936 6.85589C14.6086 6.66599 14.3343 6.57042 13.9731 6.57042C13.7063 6.57042 13.4432 6.62503 13.1838 6.73425C12.9244 6.84348 12.7109 7.00359 12.5446 7.21211V12.5393H10.2583V1Z" fill="#3FB4DB"/>
<path d="M19.9805 12.2387C19.412 11.9384 18.9739 11.4878 18.666 10.8858C18.3595 10.2839 18.2056 9.5404 18.2056 8.6542C18.2056 7.31124 18.537 6.30092 19.1985 5.62324C19.8601 4.94431 20.8009 4.60547 22.0197 4.60547C23.2336 4.60547 24.1719 4.94555 24.8372 5.62696C25.5012 6.30713 25.8326 7.31248 25.8326 8.64054C25.8326 9.53047 25.6787 10.2777 25.3721 10.8821C25.0656 11.4866 24.6274 11.9396 24.059 12.2387C23.4905 12.5391 22.8103 12.688 22.021 12.688C21.2291 12.6893 20.5489 12.5391 19.9805 12.2387ZM22.855 10.7394C23.0735 10.5966 23.241 10.3571 23.3589 10.022C23.4756 9.68686 23.534 9.23259 23.534 8.66164C23.534 8.08077 23.4756 7.61905 23.3589 7.27649C23.2423 6.93392 23.0735 6.69065 22.8513 6.54792C22.6304 6.40518 22.3523 6.33443 22.0197 6.33443C21.6871 6.33443 21.4091 6.40642 21.1881 6.54792C20.9672 6.69065 20.7984 6.9302 20.6817 7.26532C20.5651 7.60044 20.5067 8.05719 20.5067 8.6331C20.5067 9.21397 20.5651 9.67445 20.6817 10.0145C20.7984 10.3546 20.966 10.5966 21.1856 10.7394C21.4041 10.8821 21.6834 10.9541 22.021 10.9541C22.3573 10.9541 22.6353 10.8821 22.855 10.7394Z" fill="#3FB4DB"/>
<path d="M26.7461 4.72712H28.6103L28.7891 5.73372H28.8958C29.1105 5.35764 29.396 5.07838 29.7522 4.89468C30.1097 4.71099 30.5143 4.61914 30.9661 4.61914C31.1945 4.61914 31.4042 4.63776 31.5941 4.67624V6.74032C31.3844 6.69688 31.1275 6.67578 30.8234 6.67578C30.4758 6.67578 30.1358 6.7428 29.8019 6.87561C29.4692 7.00965 29.2111 7.19211 29.0311 7.42545V12.5379H26.7461V4.72712Z" fill="#3FB4DB"/>
<path d="M37.2208 4.91949C37.7445 5.12925 38.1318 5.47305 38.385 5.95091C38.637 6.42876 38.7636 7.0779 38.7636 7.89708V12.5378H36.8782L36.7206 11.7671H36.6151C36.3867 12.0761 36.0938 12.3057 35.7363 12.4559C35.3789 12.6061 34.9817 12.6806 34.5435 12.6806C34.0198 12.6806 33.568 12.5863 33.1869 12.3988C32.8059 12.2114 32.5142 11.947 32.3119 11.6057C32.1096 11.2656 32.0078 10.8697 32.0078 10.4167C32.0078 9.66948 32.2685 9.09109 32.7898 8.6815C33.3111 8.27191 34.1327 8.03237 35.2572 7.96038L36.5282 7.85364V7.7531C36.5282 7.39192 36.4699 7.10769 36.3532 6.90413C36.2365 6.69934 36.0503 6.55288 35.7959 6.46476C35.5415 6.37663 35.1927 6.33195 34.7496 6.33195C34.4306 6.33195 34.0818 6.35801 33.7033 6.41014C33.3247 6.46227 32.9672 6.54047 32.6284 6.64597V4.93438C32.9995 4.83012 33.4116 4.74945 33.8634 4.69111C34.3152 4.63402 34.7459 4.60547 35.1554 4.60547C36.0094 4.60547 36.6982 4.71097 37.2208 4.91949ZM35.9498 10.9789C36.1645 10.9007 36.3569 10.7754 36.5282 10.6041V9.1395L35.4856 9.21769C35.0574 9.2512 34.7459 9.34926 34.5497 9.51434C34.3549 9.67817 34.2568 9.90779 34.2568 10.2032C34.2568 10.4936 34.345 10.7146 34.5212 10.8672C34.6975 11.0199 34.9544 11.0956 35.292 11.0956C35.5166 11.0968 35.7363 11.0571 35.9498 10.9789Z" fill="#3FB4DB"/>
<path d="M8.7255 18.5566H13.9422V46.1444H5.86706V27.9325L0 31.9055V24.4609L8.7255 18.5566Z" fill="#3FB4DB"/>
<path d="M38.9781 34.2997C39.6769 35.4143 40.0269 36.7498 40.0269 38.3099C40.0269 39.8825 39.5962 41.2863 38.7361 42.5237C37.8759 43.7612 36.5727 44.7368 34.8288 45.4479C33.0837 46.1591 30.9427 46.5154 28.4057 46.5154C25.7322 46.5154 23.5229 46.2063 21.7778 45.587C20.0327 44.9676 18.7456 44.1199 17.9165 43.0438C17.0874 41.9664 16.6729 40.7228 16.6729 39.3128C16.6729 37.9512 17.075 36.7287 17.8793 35.6464C18.6836 34.5628 19.859 33.6878 21.4067 33.0188C19.9707 32.1773 18.938 31.193 18.3062 30.0672C17.6745 28.9415 17.3592 27.6668 17.3592 26.2432C17.3592 24.6594 17.7862 23.273 18.6401 22.084C19.4941 20.8962 20.7849 19.9678 22.5114 19.2988C24.2378 18.6298 26.364 18.2959 28.8885 18.2959C31.0792 18.2959 32.9571 18.5739 34.5235 19.1312C36.0886 19.6885 37.2826 20.4891 38.1068 21.5354C38.9297 22.5817 39.3417 23.8278 39.3417 25.2763C39.3417 27.9374 38.0236 29.9605 35.3874 31.3469C37.0803 32.2021 38.2781 33.1863 38.9781 34.2997ZM32.5823 38.7555C32.5823 38.1982 32.4209 37.7253 32.0995 37.3356C31.778 36.9459 31.2021 36.5748 30.373 36.221C29.5439 35.8685 28.3375 35.4937 26.7525 35.0977L26.4 35.0047C25.6329 35.4378 25.0657 35.9517 24.7008 36.5462C24.3359 37.1407 24.1534 37.7464 24.1534 38.3658C24.1534 39.2445 24.5035 39.9197 25.2022 40.3889C25.901 40.8593 26.9746 41.0939 28.4231 41.0939C31.1959 41.0951 32.5823 40.3157 32.5823 38.7555ZM25.87 24.3392C25.232 24.7538 24.9143 25.2887 24.9143 25.9453C24.9143 26.4653 25.0471 26.901 25.3139 27.2535C25.5796 27.606 26.0934 27.9585 26.8555 28.3122C27.6163 28.6647 28.7644 29.0644 30.2998 29.51C31.0544 29.0023 31.6018 28.4674 31.9431 27.9039C32.2832 27.3404 32.4532 26.7372 32.4532 26.0942C32.4532 25.3272 32.1466 24.7389 31.5347 24.3305C30.9216 23.9222 30.0093 23.7174 28.7967 23.7174C27.4823 23.7174 26.508 23.9246 25.87 24.3392Z" fill="#3FB4DB"/>
<path d="M18.5518 73.0766L3.51612 57.5644C1.77599 55.7696 3.14749 52.9087 5.74776 52.9087H35.8191C38.4193 52.9087 39.7896 55.7696 38.0507 57.5644L23.0138 73.0766C21.821 74.3066 19.7433 74.3066 18.5518 73.0766Z" fill="#3FB4DB"/>
</svg>
