<svg width="46" height="74" viewBox="0 0 46 74" fill="none" xmlns="http://www.w3.org/2000/svg">
<path d="M6.5301 12.6821C5.73078 12.6821 5.1077 12.4735 4.66336 12.0577C4.21778 11.6407 3.99561 11.0971 3.99561 10.4256C3.99561 9.68832 4.25129 9.11118 4.7639 8.69786C5.27526 8.28331 6.10313 8.0388 7.24502 7.96184L8.8871 7.82655L9.13037 9.08387L7.47339 9.21916C7.03526 9.25267 6.72 9.35196 6.52761 9.51952C6.33523 9.68584 6.23842 9.91422 6.23842 10.2047C6.23842 10.4901 6.32654 10.7111 6.50279 10.865C6.67904 11.0201 6.93596 11.0971 7.27356 11.0971C7.48332 11.0971 7.69681 11.0598 7.91649 10.9866C8.13494 10.9134 8.33477 10.7855 8.51599 10.6043V7.74836C8.51599 7.3909 8.45765 7.11039 8.34098 6.9056C8.22431 6.7008 8.03689 6.55435 7.77748 6.46622C7.51808 6.3781 7.17179 6.33466 6.73861 6.33466C6.43825 6.33466 6.09817 6.35948 5.71712 6.40913C5.33608 6.45877 4.97241 6.53945 4.62488 6.64867V4.93461C5.00593 4.82538 5.42296 4.74346 5.87848 4.68885C6.33275 4.63424 6.75599 4.60693 7.14572 4.60693C7.97359 4.60693 8.65376 4.70871 9.18374 4.91351C9.71497 5.1183 10.1059 5.45962 10.3579 5.93872C10.6099 6.41657 10.7365 7.06819 10.7365 7.8911V12.5393H8.86476L8.70713 11.7611H8.60039C8.36704 12.0801 8.06916 12.3134 7.70798 12.4611C7.34679 12.6076 6.95334 12.6821 6.5301 12.6821Z" fill="#3FB4DB"/>
<path d="M11.9429 12.5393V1H14.213V5.51293H14.3272C14.594 5.21753 14.908 4.99288 15.2692 4.83773C15.6304 4.68258 16.035 4.60563 16.4831 4.60563C16.9585 4.60563 17.3904 4.70616 17.7752 4.90599C18.1612 5.10582 18.4665 5.43101 18.6924 5.88032C18.9183 6.32963 19.0313 6.92663 19.0313 7.66886V12.5393H16.7537V7.81904C16.7537 7.34367 16.6544 7.016 16.457 6.83727C16.2597 6.65854 15.9916 6.56917 15.654 6.56917C15.4827 6.56917 15.309 6.59152 15.1327 6.63744C14.9565 6.68336 14.7889 6.75287 14.6288 6.84844C14.4687 6.94401 14.3297 7.06316 14.2105 7.2059V12.5393H11.9429Z" fill="#3FB4DB"/>
<path d="M23.6883 12.6893C22.9076 12.6893 22.2324 12.5404 21.6639 12.2425C21.0954 11.9446 20.6561 11.4978 20.347 10.8995C20.038 10.3025 19.8828 9.55407 19.8828 8.65422C19.8828 7.74443 20.0342 6.9898 20.3358 6.39031C20.6387 5.79082 21.0731 5.34275 21.6428 5.04735C22.2113 4.75195 22.8939 4.60425 23.6883 4.60425C24.4826 4.60425 25.1653 4.75319 25.7337 5.05107C26.3022 5.34896 26.7378 5.79578 27.0407 6.39403C27.3435 6.99104 27.4937 7.73947 27.4937 8.63932C27.4937 9.54414 27.3386 10.2963 27.0295 10.8958C26.7205 11.4953 26.2811 11.9446 25.7126 12.2412C25.1442 12.5404 24.469 12.6893 23.6883 12.6893ZM23.6883 10.9603C24.0073 10.9603 24.2791 10.8921 24.5062 10.7531C24.7321 10.6153 24.9046 10.3782 25.0238 10.0431C25.1429 9.70798 25.2025 9.2475 25.2025 8.66167C25.2025 8.06218 25.1429 7.59301 25.0238 7.25541C24.9046 6.91781 24.7321 6.67826 24.5062 6.53801C24.2803 6.39775 24.0073 6.32701 23.6883 6.32701C23.3693 6.32701 23.0962 6.39651 22.8703 6.53428C22.6444 6.67205 22.4719 6.90912 22.3528 7.24424C22.2336 7.57936 22.174 8.04232 22.174 8.63312C22.174 9.23261 22.2336 9.70177 22.3528 10.0394C22.4719 10.377 22.6444 10.6153 22.8703 10.7531C23.0975 10.8921 23.3693 10.9603 23.6883 10.9603Z" fill="#3FB4DB"/>
<path d="M28.4082 12.5394V4.72737H30.2725L30.4437 5.73396H30.5579C30.7764 5.34796 31.0668 5.06621 31.4292 4.88748C31.7904 4.70875 32.1888 4.61938 32.622 4.61938C32.7412 4.61938 32.8553 4.62435 32.9646 4.63428C33.0738 4.64421 33.1719 4.65786 33.2575 4.67648V6.73435C33.1383 6.71077 33.0105 6.69464 32.8752 6.68843C32.7399 6.68098 32.6096 6.67726 32.4855 6.67726C32.2621 6.67726 32.0362 6.70457 31.8066 6.75918C31.5782 6.81379 31.3659 6.89695 31.1711 7.00866C30.9762 7.12036 30.8111 7.25689 30.6783 7.41949V12.5394H28.4082Z" fill="#3FB4DB"/>
<path d="M36.2132 12.6821C35.4139 12.6821 34.7908 12.4735 34.3465 12.0577C33.9009 11.6407 33.6787 11.0971 33.6787 10.4256C33.6787 9.68832 33.9344 9.11118 34.447 8.69786C34.9584 8.28331 35.7862 8.0388 36.9281 7.96184L38.569 7.82655L38.8122 9.08387L37.1553 9.21916C36.7171 9.25267 36.4019 9.35196 36.2095 9.51952C36.0171 9.68584 35.9203 9.91422 35.9203 10.2047C35.9203 10.4901 36.0084 10.7111 36.1847 10.865C36.3609 11.0201 36.6178 11.0971 36.9554 11.0971C37.1652 11.0971 37.3787 11.0598 37.5984 10.9866C37.8168 10.9134 38.0166 10.7855 38.1978 10.6043V7.74836C38.1978 7.3909 38.1395 7.11039 38.0228 6.9056C37.9062 6.7008 37.7188 6.55435 37.4593 6.46622C37.1999 6.3781 36.8536 6.33466 36.4205 6.33466C36.1201 6.33466 35.78 6.35948 35.399 6.40913C35.0179 6.45877 34.6543 6.53945 34.3067 6.64867V4.93461C34.6878 4.82538 35.1048 4.74346 35.5603 4.68885C36.0146 4.63424 36.4379 4.60693 36.8276 4.60693C37.6555 4.60693 38.3356 4.70871 38.8656 4.91351C39.3968 5.1183 39.7878 5.45962 40.0398 5.93872C40.2917 6.41657 40.4183 7.06819 40.4183 7.8911V12.5393H38.5479L38.3902 11.7611H38.2835C38.0501 12.0801 37.7523 12.3134 37.3911 12.4611C37.0299 12.6076 36.6364 12.6821 36.2132 12.6821Z" fill="#3FB4DB"/>
<path d="M0.352495 46.1452V41.8569L7.75986 33.057C8.46485 32.203 9.02834 31.4484 9.4491 30.7918C9.86986 30.1365 10.1727 29.542 10.3589 29.0095C10.5451 28.477 10.6369 27.9694 10.6369 27.4866C10.6369 26.5706 10.3092 25.878 9.65266 25.4076C8.99607 24.9372 7.83929 24.7026 6.18108 24.7026C5.09132 24.7026 3.99288 24.8019 2.88574 24.9992C1.77861 25.1978 0.816696 25.451 0 25.7601V19.3184C0.569702 19.1322 1.2598 18.9597 2.07029 18.7983C2.88078 18.6382 3.7285 18.5141 4.61347 18.4272C5.49843 18.3403 6.32381 18.2969 7.0921 18.2969C10.9162 18.2969 13.7845 18.9646 15.6972 20.3014C17.6099 21.6381 18.5656 23.7605 18.5656 26.6699C18.5656 27.561 18.4477 28.4584 18.2131 29.362C17.9773 30.2656 17.585 31.2027 17.034 32.1745C16.4829 33.1463 15.7369 34.1703 14.7973 35.2477L9.24679 41.5417L9.13508 39.5558H19.7732V46.1465H0.352495V46.1452Z" fill="#3FB4DB"/>
<path d="M21.7036 41.1147V36.7519L30.5594 18.6692H38.2088L29.5206 36.7519L28.7039 34.9882H45.4126V41.1147H21.7036V41.1147ZM34.9222 46.1452V34.987L35.6644 27.9507H42.0875V46.1452H34.9222Z" fill="#3FB4DB"/>
<path d="M20.2261 73.0762L5.19044 57.5639C3.4503 55.7691 4.82181 52.9082 7.42208 52.9082H37.4934C40.0937 52.9082 41.4652 55.7691 39.725 57.5639L24.6894 73.0762C23.4966 74.3074 21.4189 74.3074 20.2261 73.0762Z" fill="#3FB4DB"/>
</svg>
